<?xml version="1.0" encoding="UTF-8" standalone="no"?>
<!-- Created with Inkscape (http://www.inkscape.org/) -->

<svg
   width="210mm"
   height="297mm"
   viewBox="0 0 210 297"
   version="1.1"
   id="svg5"
   inkscape:version="1.2.2 (732a01da63, 2022-12-09)"
   sodipodi:docname="kresba.svg"
   xmlns:inkscape="http://www.inkscape.org/namespaces/inkscape"
   xmlns:sodipodi="http://sodipodi.sourceforge.net/DTD/sodipodi-0.dtd"
   xmlns:xlink="http://www.w3.org/1999/xlink"
   xmlns="http://www.w3.org/2000/svg"
   xmlns:svg="http://www.w3.org/2000/svg">
  <sodipodi:namedview
     id="namedview7"
     pagecolor="#ffffff"
     bordercolor="#000000"
     borderopacity="0.25"
     inkscape:showpageshadow="2"
     inkscape:pageopacity="0.0"
     inkscape:pagecheckerboard="0"
     inkscape:deskcolor="#d1d1d1"
     inkscape:document-units="mm"
     showgrid="false"
     inkscape:zoom="1.0255231"
     inkscape:cx="513.8841"
     inkscape:cy="422.22356"
     inkscape:window-width="1920"
     inkscape:window-height="1001"
     inkscape:window-x="-9"
     inkscape:window-y="-9"
     inkscape:window-maximized="1"
     inkscape:current-layer="layer1" />
  <defs
     id="defs2" />
  <g
     inkscape:label="Vrstva 1"
     inkscape:groupmode="layer"
     id="layer1">
    <use
       x="0"
       y="0"
       inkscape:tiled-clone-of="#use523"
       xlink:href="#use523"
       transform="translate(-3.7837836e-8,49.25676)"
       id="use571" />
    <use
       x="0"
       y="0"
       inkscape:tiled-clone-of="#use523"
       xlink:href="#use523"
       transform="translate(-3.7837836e-8,65.675681)"
       id="use573" />
    <use
       x="0"
       y="0"
       inkscape:tiled-clone-of="#use523"
       xlink:href="#use523"
       transform="translate(-3.7837836e-8,82.094601)"
       id="use575" />
    <use
       x="0"
       y="0"
       inkscape:tiled-clone-of="#use523"
       xlink:href="#use523"
       transform="translate(0.36486483,98.513521)"
       id="use579" />
    <use
       x="0"
       y="0"
       inkscape:tiled-clone-of="#use523"
       xlink:href="#use523"
       transform="translate(0.36486483,114.93244)"
       id="use581" />
    <use
       x="0"
       y="0"
       inkscape:tiled-clone-of="#use523"
       xlink:href="#use523"
       transform="translate(0.36486483,147.77028)"
       id="use585" />
    <use
       x="0"
       y="0"
       inkscape:tiled-clone-of="#use523"
       xlink:href="#use523"
       transform="translate(0.36486483,164.1892)"
       id="use587" />
    <g
       id="g867">
      <ellipse
         style="fill:#000000;stroke-width:0.167034"
         id="use523"
         cx="24.81081"
         cy="26.4527"
         rx="8.0270262"
         ry="8.2094603"
         inkscape:tile-x0="9.1216209"
         inkscape:tile-y0="10.581076"
         inkscape:tile-cx="17.148647"
         inkscape:tile-cy="18.790536"
         inkscape:tile-w="16.054052"
         inkscape:tile-h="16.41892" />
      <use
         x="0"
         y="0"
         inkscape:tiled-clone-of="#use523"
         xlink:href="#use523"
         id="use565" />
      <use
         x="0"
         y="0"
         inkscape:tiled-clone-of="#use523"
         xlink:href="#use523"
         transform="translate(-3.7837836e-8,16.41892)"
         id="use567" />
      <use
         x="0"
         y="0"
         inkscape:tiled-clone-of="#use523"
         xlink:href="#use523"
         transform="translate(16.054052)"
         id="use589" />
      <use
         x="0"
         y="0"
         inkscape:tiled-clone-of="#use523"
         xlink:href="#use523"
         transform="translate(16.054052,16.41892)"
         id="use591" />
    </g>
    <use
       x="0"
       y="0"
       inkscape:tiled-clone-of="#use523"
       xlink:href="#use523"
       transform="translate(16.054052,49.25676)"
       id="use595" />
    <use
       x="0"
       y="0"
       inkscape:tiled-clone-of="#use523"
       xlink:href="#use523"
       transform="translate(16.054052,82.094601)"
       id="use599" />
    <use
       x="0"
       y="0"
       inkscape:tiled-clone-of="#use523"
       xlink:href="#use523"
       transform="translate(16.418917,114.93244)"
       id="use605" />
    <use
       x="0"
       y="0"
       inkscape:tiled-clone-of="#use523"
       xlink:href="#use523"
       transform="translate(16.418917,147.77028)"
       id="use609" />
    <use
       x="0"
       y="0"
       inkscape:tiled-clone-of="#use523"
       xlink:href="#use523"
       transform="translate(16.418917,164.1892)"
       id="use611" />
    <use
       x="0"
       y="0"
       inkscape:tiled-clone-of="#use523"
       xlink:href="#use523"
       transform="translate(32.108104,49.25676)"
       id="use619" />
    <use
       x="0"
       y="0"
       inkscape:tiled-clone-of="#use523"
       xlink:href="#use523"
       transform="translate(32.108104,82.094601)"
       id="use623" />
    <use
       x="0"
       y="0"
       inkscape:tiled-clone-of="#use523"
       xlink:href="#use523"
       transform="translate(32.472969,114.93244)"
       id="use629" />
    <use
       x="0"
       y="0"
       inkscape:tiled-clone-of="#use523"
       xlink:href="#use523"
       transform="translate(48.162156)"
       id="use637" />
    <use
       x="0"
       y="0"
       inkscape:tiled-clone-of="#use523"
       xlink:href="#use523"
       transform="translate(48.162156,16.41892)"
       id="use639" />
    <use
       x="0"
       y="0"
       inkscape:tiled-clone-of="#use523"
       xlink:href="#use523"
       transform="translate(48.162156,32.83784)"
       id="use641" />
    <use
       x="0"
       y="0"
       inkscape:tiled-clone-of="#use523"
       xlink:href="#use523"
       transform="translate(48.162156,49.25676)"
       id="use643" />
    <use
       x="0"
       y="0"
       inkscape:tiled-clone-of="#use523"
       xlink:href="#use523"
       transform="translate(48.162156,82.094601)"
       id="use647" />
    <use
       x="0"
       y="0"
       inkscape:tiled-clone-of="#use523"
       xlink:href="#use523"
       transform="translate(48.527021,114.93244)"
       id="use653" />
    <use
       x="0"
       y="0"
       inkscape:tiled-clone-of="#use523"
       xlink:href="#use523"
       transform="translate(48.527021,131.35136)"
       id="use655" />
    <use
       x="0"
       y="0"
       inkscape:tiled-clone-of="#use523"
       xlink:href="#use523"
       transform="translate(48.527021,147.77028)"
       id="use657" />
    <use
       x="0"
       y="0"
       inkscape:tiled-clone-of="#use523"
       xlink:href="#use523"
       transform="translate(48.527021,164.1892)"
       id="use659" />
    <use
       x="0"
       y="0"
       inkscape:tiled-clone-of="#use523"
       xlink:href="#use523"
       transform="translate(64.216208)"
       id="use661" />
    <use
       x="0"
       y="0"
       inkscape:tiled-clone-of="#use523"
       xlink:href="#use523"
       transform="translate(64.216208,82.094601)"
       id="use671" />
    <use
       x="0"
       y="0"
       inkscape:tiled-clone-of="#use523"
       xlink:href="#use523"
       transform="translate(64.581073,164.1892)"
       id="use683" />
    <use
       x="0"
       y="0"
       inkscape:tiled-clone-of="#use523"
       xlink:href="#use523"
       transform="translate(80.27026)"
       id="use685" />
    <use
       x="0"
       y="0"
       inkscape:tiled-clone-of="#use523"
       xlink:href="#use523"
       transform="translate(80.27026,16.41892)"
       id="use687" />
    <use
       x="0"
       y="0"
       inkscape:tiled-clone-of="#use523"
       xlink:href="#use523"
       transform="translate(80.27026,32.83784)"
       id="use689" />
    <use
       x="0"
       y="0"
       inkscape:tiled-clone-of="#use523"
       xlink:href="#use523"
       transform="translate(80.27026,49.25676)"
       id="use691" />
    <use
       x="0"
       y="0"
       inkscape:tiled-clone-of="#use523"
       xlink:href="#use523"
       transform="translate(80.27026,65.675681)"
       id="use693" />
    <use
       x="0"
       y="0"
       inkscape:tiled-clone-of="#use523"
       xlink:href="#use523"
       transform="translate(80.635125,98.513521)"
       id="use699" />
    <use
       x="0"
       y="0"
       inkscape:tiled-clone-of="#use523"
       xlink:href="#use523"
       transform="translate(80.635125,114.93244)"
       id="use701" />
    <use
       x="0"
       y="0"
       inkscape:tiled-clone-of="#use523"
       xlink:href="#use523"
       transform="translate(80.635125,131.35136)"
       id="use703" />
    <use
       x="0"
       y="0"
       inkscape:tiled-clone-of="#use523"
       xlink:href="#use523"
       transform="translate(80.635125,147.77028)"
       id="use705" />
    <use
       x="0"
       y="0"
       inkscape:tiled-clone-of="#use523"
       xlink:href="#use523"
       transform="translate(80.635125,164.1892)"
       id="use707" />
    <use
       x="0"
       y="0"
       inkscape:tiled-clone-of="#use523"
       xlink:href="#use523"
       transform="translate(96.324312)"
       id="use709" />
    <use
       x="0"
       y="0"
       inkscape:tiled-clone-of="#use523"
       xlink:href="#use523"
       transform="translate(96.324312,82.094601)"
       id="use719" />
    <use
       x="0"
       y="0"
       inkscape:tiled-clone-of="#use523"
       xlink:href="#use523"
       transform="translate(96.689177,164.1892)"
       id="use731" />
    <use
       x="0"
       y="0"
       inkscape:tiled-clone-of="#use523"
       xlink:href="#use523"
       transform="translate(112.37836)"
       id="use733" />
    <use
       x="0"
       y="0"
       inkscape:tiled-clone-of="#use523"
       xlink:href="#use523"
       transform="translate(112.37836,16.41892)"
       id="use735" />
    <use
       x="0"
       y="0"
       inkscape:tiled-clone-of="#use523"
       xlink:href="#use523"
       transform="translate(112.37836,32.83784)"
       id="use737" />
    <use
       x="0"
       y="0"
       inkscape:tiled-clone-of="#use523"
       xlink:href="#use523"
       transform="translate(112.37836,49.25676)"
       id="use739" />
    <use
       x="0"
       y="0"
       inkscape:tiled-clone-of="#use523"
       xlink:href="#use523"
       transform="translate(112.37836,82.094601)"
       id="use743" />
    <use
       x="0"
       y="0"
       inkscape:tiled-clone-of="#use523"
       xlink:href="#use523"
       transform="translate(112.74322,114.93244)"
       id="use749" />
    <use
       x="0"
       y="0"
       inkscape:tiled-clone-of="#use523"
       xlink:href="#use523"
       transform="translate(112.74322,131.35136)"
       id="use751" />
    <use
       x="0"
       y="0"
       inkscape:tiled-clone-of="#use523"
       xlink:href="#use523"
       transform="translate(112.74322,147.77028)"
       id="use753" />
    <use
       x="0"
       y="0"
       inkscape:tiled-clone-of="#use523"
       xlink:href="#use523"
       transform="translate(112.74322,164.1892)"
       id="use755" />
    <use
       x="0"
       y="0"
       inkscape:tiled-clone-of="#use523"
       xlink:href="#use523"
       transform="translate(128.43242,49.25676)"
       id="use763" />
    <use
       x="0"
       y="0"
       inkscape:tiled-clone-of="#use523"
       xlink:href="#use523"
       transform="translate(128.43242,82.094601)"
       id="use767" />
    <use
       x="0"
       y="0"
       inkscape:tiled-clone-of="#use523"
       xlink:href="#use523"
       transform="translate(128.79728,114.93244)"
       id="use773" />
    <use
       x="0"
       y="0"
       inkscape:tiled-clone-of="#use523"
       xlink:href="#use523"
       transform="translate(144.48647)"
       id="use781" />
    <use
       x="0"
       y="0"
       inkscape:tiled-clone-of="#use523"
       xlink:href="#use523"
       transform="translate(144.48647,16.41892)"
       id="use783" />
    <use
       x="0"
       y="0"
       inkscape:tiled-clone-of="#use523"
       xlink:href="#use523"
       transform="translate(144.48647,49.25676)"
       id="use787" />
    <use
       x="0"
       y="0"
       inkscape:tiled-clone-of="#use523"
       xlink:href="#use523"
       transform="translate(144.48647,82.094601)"
       id="use791" />
    <use
       x="0"
       y="0"
       inkscape:tiled-clone-of="#use523"
       xlink:href="#use523"
       transform="translate(144.85133,114.93244)"
       id="use797" />
    <use
       x="0"
       y="0"
       inkscape:tiled-clone-of="#use523"
       xlink:href="#use523"
       transform="translate(144.85133,147.77028)"
       id="use801" />
    <use
       x="0"
       y="0"
       inkscape:tiled-clone-of="#use523"
       xlink:href="#use523"
       transform="translate(144.85133,164.1892)"
       id="use803" />
    <use
       x="0"
       y="0"
       inkscape:tiled-clone-of="#use523"
       xlink:href="#use523"
       transform="translate(160.54052)"
       id="use805" />
    <use
       x="0"
       y="0"
       inkscape:tiled-clone-of="#use523"
       xlink:href="#use523"
       transform="translate(160.54052,16.41892)"
       id="use807" />
    <use
       x="0"
       y="0"
       inkscape:tiled-clone-of="#use523"
       xlink:href="#use523"
       transform="translate(160.54052,49.25676)"
       id="use811" />
    <use
       x="0"
       y="0"
       inkscape:tiled-clone-of="#use523"
       xlink:href="#use523"
       transform="translate(160.54052,65.675681)"
       id="use813" />
    <use
       x="0"
       y="0"
       inkscape:tiled-clone-of="#use523"
       xlink:href="#use523"
       transform="translate(160.54052,82.094601)"
       id="use815" />
    <use
       x="0"
       y="0"
       inkscape:tiled-clone-of="#use523"
       xlink:href="#use523"
       transform="translate(160.90538,98.513521)"
       id="use819" />
    <use
       x="0"
       y="0"
       inkscape:tiled-clone-of="#use523"
       xlink:href="#use523"
       transform="translate(160.90538,114.93244)"
       id="use821" />
    <use
       x="0"
       y="0"
       inkscape:tiled-clone-of="#use523"
       xlink:href="#use523"
       transform="translate(160.90538,147.77028)"
       id="use825" />
    <use
       x="0"
       y="0"
       inkscape:tiled-clone-of="#use523"
       xlink:href="#use523"
       transform="translate(160.90538,164.1892)"
       id="use827" />
    <path
       style="opacity:1;fill:#0000ff;stroke-width:1.37902"
       d="M 82.741009,128.11852 C 62.676322,119.42752 58.057737,92.769754 73.995859,77.64285 92.679488,59.910179 123.0083,73.731576 123.0083,99.978719 c 0,21.365711 -21.39255,36.315371 -40.267291,28.139801 z"
       id="path1054"
       transform="scale(0.26458333)" />
    <path
       style="opacity:1;fill:#0000ff;stroke-width:1.37902"
       d="m 84.809534,190.90976 c -2.275378,-0.66789 -6.544286,-3.2054 -9.486462,-5.6389 -14.700688,-12.15909 -13.956154,-35.91415 1.490684,-47.56167 19.094177,-14.39775 45.985404,-0.17362 45.888454,24.27273 -0.082,20.6794 -18.38664,34.65343 -37.892676,28.92784 z"
       id="path1056"
       transform="scale(0.26458333)" />
    <path
       style="opacity:1;fill:#0000ff;stroke-width:1.37902"
       d="m 145.48627,190.90976 c -2.27537,-0.66789 -6.54428,-3.2054 -9.48646,-5.6389 -14.70069,-12.15909 -13.95615,-35.91415 1.49069,-47.56167 19.09417,-14.39775 45.98539,-0.17362 45.88845,24.27273 -0.082,20.6794 -18.38664,34.65343 -37.89268,28.92784 z"
       id="path1058"
       transform="scale(0.26458333)" />
    <path
       style="opacity:1;fill:#0000ff;stroke-width:1.37902"
       d="m 145.48627,128.854 c -2.27537,-0.66789 -6.54428,-3.20539 -9.48646,-5.6389 -14.70069,-12.15909 -13.95615,-35.914147 1.49069,-47.561666 19.09417,-14.397755 45.98539,-0.173624 45.88845,24.272731 -0.082,20.679395 -18.38664,34.653425 -37.89268,28.927835 z"
       id="path1060"
       transform="scale(0.26458333)" />
    <path
       style="opacity:1;fill:#0000ff;stroke-width:1.37902"
       d="m 84.809534,315.02127 c -2.275378,-0.66789 -6.544286,-3.20539 -9.486462,-5.6389 -14.700688,-12.15909 -13.956154,-35.91415 1.490684,-47.56167 19.094177,-14.39775 45.985404,-0.17362 45.888454,24.27273 -0.082,20.6794 -18.38664,34.65343 -37.892676,28.92784 z"
       id="path1062"
       transform="scale(0.26458333)" />
    <path
       style="opacity:1;fill:#0000ff;stroke-width:1.37902"
       d="m 145.48627,439.13278 c -6.1685,-1.81063 -14.49958,-9.32303 -17.38552,-15.67707 -1.4907,-3.28211 -2.54965,-8.76373 -2.54965,-13.19821 0,-20.45572 17.87183,-34.34395 37.26301,-28.95715 7.39359,2.05392 15.8487,10.01272 18.69208,17.59487 1.34802,3.59465 3.10337,6.99164 3.90077,7.54887 0.95186,0.66516 0.85776,1.0204 -0.27395,1.03426 -1.06334,0.013 -1.73538,2.00241 -1.75406,5.19243 -0.10675,18.22721 -19.59123,31.83401 -37.89268,26.462 z"
       id="path1064"
       transform="scale(0.26458333)" />
    <path
       style="opacity:1;fill:#0000ff;stroke-width:1.37902"
       d="m 206.16301,439.13278 c -2.27537,-0.66789 -6.54428,-3.20539 -9.48646,-5.63889 -14.70069,-12.15909 -13.95615,-35.91415 1.49069,-47.56167 19.09417,-14.39776 45.98539,-0.17363 45.88845,24.27273 -0.082,20.67939 -18.38664,34.65342 -37.89268,28.92783 z"
       id="path1066"
       transform="scale(0.26458333)" />
    <path
       style="opacity:1;fill:#0000ff;stroke-width:1.37902"
       d="m 266.83975,439.13278 c -2.27537,-0.66789 -6.54428,-3.20539 -9.48646,-5.63889 -14.70069,-12.15909 -13.95615,-35.91415 1.49069,-47.56167 19.09417,-14.39776 45.98539,-0.17363 45.88845,24.27273 -0.082,20.67939 -18.38664,34.65342 -37.89268,28.92783 z"
       id="path1068"
       transform="scale(0.26458333)" />
    <path
       style="opacity:1;fill:#0000ff;stroke-width:1.37902"
       d="m 327.51649,439.13278 c -2.27537,-0.66789 -6.54428,-3.20539 -9.48646,-5.63889 -14.70069,-12.15909 -13.95615,-35.91415 1.49068,-47.56167 19.09418,-14.39776 45.9854,-0.17363 45.88846,24.27273 -0.082,20.67939 -18.38664,34.65342 -37.89268,28.92783 z"
       id="path1070"
       transform="scale(0.26458333)" />
    <path
       style="opacity:1;fill:#005500;stroke-width:1.37902"
       d="m 86.188551,687.35581 c -2.275378,-0.66789 -6.544286,-3.20539 -9.486462,-5.6389 -14.700688,-12.15909 -13.956154,-35.91415 1.490684,-47.56167 19.094177,-14.39775 45.985397,-0.17362 45.888457,24.27273 -0.082,20.6794 -18.38664,34.65343 -37.892679,28.92784 z"
       id="path1159"
       transform="scale(0.26458333)" />
    <path
       style="opacity:1;fill:#005500;stroke-width:0.172377"
       d="m 91.876995,751.28693 c -11.611081,-1.31408 -21.555609,-9.477 -25.317017,-20.78135 -1.267698,-3.80988 -1.484824,-5.26769 -1.484824,-9.96929 0,-3.68086 0.04444,-4.34614 0.403026,-6.0332 2.048228,-9.63645 7.976276,-17.49439 16.375722,-21.70687 16.370022,-8.20987 36.131448,0.2009 41.924888,17.8439 1.20005,3.65455 1.45317,5.37833 1.45317,9.89617 0,3.45915 -0.0507,4.21523 -0.398,5.92976 -1.94985,9.62723 -7.91502,17.56318 -16.40039,21.81875 -5.13545,2.57552 -10.973106,3.63404 -16.556575,3.00213 z"
       id="path1163"
       transform="scale(0.26458333)" />
    <path
       style="opacity:1;fill:#005500;stroke-width:0.172377"
       d="m 152.55374,751.28693 c -11.61109,-1.31408 -21.55561,-9.477 -25.31702,-20.78135 -1.2677,-3.80988 -1.48483,-5.26769 -1.48483,-9.96929 0,-3.68086 0.0444,-4.34614 0.40303,-6.0332 2.04823,-9.63645 7.97628,-17.49439 16.37572,-21.70687 16.37002,-8.20987 36.13145,0.2009 41.92489,17.8439 1.20005,3.65455 1.45317,5.37833 1.45317,9.89617 0,3.45915 -0.0507,4.21523 -0.398,5.92976 -1.94985,9.62723 -7.91502,17.56318 -16.40039,21.81875 -5.13545,2.57552 -10.97311,3.63404 -16.55657,3.00213 z"
       id="path1165"
       transform="scale(0.26458333)" />
    <path
       style="opacity:1;fill:#005500;stroke-width:0.172377"
       d="m 152.55374,689.23118 c -11.61109,-1.31409 -21.55561,-9.47701 -25.31702,-20.78136 -1.2677,-3.80988 -1.48483,-5.26769 -1.48483,-9.96929 0,-3.68086 0.0444,-4.34614 0.40303,-6.0332 2.04823,-9.63645 7.97628,-17.49439 16.37572,-21.70687 16.37002,-8.20987 36.13145,0.20091 41.92489,17.8439 1.20005,3.65456 1.45317,5.37834 1.45317,9.89617 0,3.45916 -0.0507,4.21523 -0.398,5.92976 -1.94985,9.62724 -7.91502,17.56318 -16.40039,21.81875 -5.13545,2.57553 -10.97311,3.63405 -16.55657,3.00214 z"
       id="path1167"
       transform="scale(0.26458333)" />
    <path
       style="opacity:1;fill:#005500;stroke-width:0.689508"
       d="m 390.95127,688.05827 c -8.24108,-2.20491 -15.3703,-8.32602 -19.4794,-16.72491 -2.14833,-4.39111 -2.24012,-4.91778 -2.24012,-12.85283 0,-8.01892 0.0727,-8.42296 2.35829,-13.10066 4.37941,-8.96307 12.33888,-15.11836 22.08719,-17.08067 l 4.44973,-0.89571 -4.40617,-0.81942 c -9.58512,-1.78254 -17.7369,-8.06603 -22.13075,-17.05864 -2.28555,-4.6777 -2.35829,-5.08174 -2.35829,-13.10066 0,-8.01891 0.0727,-8.42296 2.35829,-13.10066 4.50851,-9.22728 12.78704,-15.45958 22.76964,-17.1416 l 4.882,-0.82259 -4.83108,-0.76071 c -9.87368,-1.55471 -18.3016,-7.88088 -22.82056,-17.12954 -2.28555,-4.6777 -2.35829,-5.08174 -2.35829,-13.10066 0,-7.93505 0.0918,-8.46172 2.24012,-12.85283 5.28626,-10.80496 15.52436,-17.59076 27.03648,-17.91974 2.63966,-0.0754 2.37379,-0.17834 -1.69626,-0.65652 -11.86619,-1.39414 -20.18428,-7.23924 -25.3637,-17.82302 -2.12106,-4.33423 -2.21664,-4.88632 -2.21664,-12.80364 0,-8.01891 0.0727,-8.42296 2.35829,-13.10066 4.44305,-9.09332 12.75508,-15.43179 22.40408,-17.08459 12.59197,-2.15692 25.51098,4.85271 31.48756,17.08459 2.28555,4.6777 2.35829,5.08175 2.35829,13.10066 0,7.93506 -0.0918,8.46172 -2.24012,12.85283 -4.09752,8.37522 -11.33325,14.60109 -19.34013,16.64092 -2.00916,0.51185 -3.65303,1.20221 -3.65303,1.53413 0,0.33192 1.64387,1.02228 3.65303,1.53413 8.00688,2.03982 15.24261,8.26569 19.34013,16.64091 2.14832,4.39111 2.24012,4.91778 2.24012,12.85283 0,7.93506 -0.0918,8.46173 -2.24012,12.85284 -4.38174,8.95615 -11.40855,14.68227 -20.87198,17.00848 l -5.14925,1.26575 4.19653,0.82562 c 9.3014,1.82993 17.38808,8.16411 21.70653,17.00241 2.28555,4.6777 2.35829,5.08175 2.35829,13.10066 0,8.01892 -0.0727,8.42296 -2.35829,13.10066 -4.37942,8.96307 -12.33888,15.11836 -22.08719,17.08067 l -4.44973,0.89571 4.40617,0.81942 c 9.58512,1.78254 17.7369,8.06603 22.13075,17.05864 2.28555,4.6777 2.35829,5.08174 2.35829,13.10066 0,7.93505 -0.0918,8.46172 -2.24012,12.85283 -6.68007,13.65388 -20.74738,20.44418 -34.64858,16.72491 z"
       id="path1171"
       transform="scale(0.26458333)" />
    <path
       style="opacity:1;fill:#ffff00;stroke-width:0.975112"
       d="m 627.21377,127.20647 c -6.4028,-3.19952 -10.61884,-7.34784 -14.10333,-13.8768 -1.83575,-3.43968 -2.19774,-5.64135 -2.19999,-13.380676 -0.002,-8.434479 0.25444,-9.727754 2.87038,-14.450042 5.24025,-9.459704 13.49828,-14.800776 24.05585,-15.558675 12.31862,-0.88432 23.17711,5.566184 28.8343,17.129066 3.8704,7.910804 3.8704,17.848497 0,25.759307 -7.49885,15.3271 -24.88175,21.66126 -39.45721,14.37782 z"
       id="path1242"
       transform="scale(0.26458333)" />
    <path
       style="opacity:1;fill:#ffff00;stroke-width:0.975112"
       d="m 631.1834,191.17205 c -8.24819,-2.578 -16.28658,-10.5223 -19.30588,-19.07992 -2.43699,-6.90716 -1.9089,-16.09304 1.31651,-22.89997 7.12126,-15.02879 23.85995,-21.56692 38.26521,-14.94639 17.63155,8.1033 23.45457,29.38685 12.42568,45.41679 -7.20389,10.4705 -20.76029,15.24175 -32.70152,11.50949 z"
       id="path1244"
       transform="scale(0.26458333)" />
    <path
       style="opacity:1;fill:#ffff00;stroke-width:0.975112"
       d="m 693.30473,191.73127 c -13.00338,-4.28169 -21.3651,-14.79959 -22.19034,-27.91243 -1.27724,-20.29493 17.14059,-36.18967 36.16627,-31.2118 14.5496,3.80676 24.30586,17.57379 22.7992,32.17191 -1.57037,15.21547 -13.3653,26.57079 -28.48633,27.42463 -3.21806,0.18171 -6.94802,-0.0308 -8.2888,-0.47231 z"
       id="path1246"
       transform="scale(0.26458333)" />
    <path
       style="opacity:1;fill:#ffff00;stroke-width:0.975112"
       d="m 691.06001,128.76947 c -13.01246,-4.64145 -21.1966,-17.70259 -19.91926,-31.789318 1.7433,-19.225406 20.97425,-31.865945 39.08936,-25.693508 6.28001,2.139817 14.41024,9.760425 17.29409,16.21006 3.43489,7.682033 3.28334,18.880446 -0.34944,25.820286 -7.08379,13.53249 -22.72957,20.22688 -36.11475,15.45248 z"
       id="path1248"
       transform="scale(0.26458333)" />
    <path
       style="opacity:1;fill:#ffff00;stroke-width:0.975112"
       d="m 508.26094,128.60943 c -5.99829,-2.20679 -14.141,-10.03395 -16.86156,-16.20815 -3.40209,-7.72091 -3.25578,-17.935716 0.36286,-25.331937 5.67613,-11.601604 16.50781,-18.012555 28.9314,-17.123651 29.4642,2.108152 37.74101,42.561048 11.61726,56.779378 -6.42075,3.49461 -17.34629,4.35065 -24.04996,1.88436 z"
       id="path1250"
       transform="scale(0.26458333)" />
    <path
       style="opacity:1;fill:#ffff00;stroke-width:0.975112"
       d="m 390.04486,191.73127 c -9.43195,-3.10571 -18.22796,-11.38377 -21.01635,-19.77882 -2.20433,-6.63663 -1.55717,-17.27412 1.40219,-23.04801 7.66443,-14.95377 23.96269,-21.22996 38.14129,-14.68759 7.72992,3.56679 11.21508,6.92213 14.83899,14.28623 2.78402,5.65738 3.19351,7.45803 3.14624,13.83515 -0.09,12.14215 -6.00498,21.73046 -16.60456,26.91635 -5.60451,2.74203 -15.40071,3.96076 -19.9078,2.47669 z"
       id="path1252"
       transform="scale(0.26458333)" />
    <path
       style="opacity:1;fill:#ffff00;stroke-width:0.975112"
       d="m 391.95816,254.12759 c -13.53206,-2.79183 -23.21422,-14.03577 -24.12764,-28.01953 -0.67128,-10.27689 1.49449,-15.91318 8.96379,-23.32775 9.07642,-9.0099 19.04907,-11.40171 30.17808,-7.23781 7.07672,2.64774 13.5497,8.52716 16.87831,15.3306 2.22995,4.55785 2.7136,6.8473 2.72207,12.88556 0.0115,8.17716 -2.00936,13.85908 -7.30899,20.55042 -5.45327,6.88531 -18.60353,11.61386 -27.30562,9.81851 z"
       id="path1254"
       transform="scale(0.26458333)" />
    <path
       style="opacity:1;fill:#ffff00;stroke-width:0.975112"
       d="m 387.80014,315.01589 c -16.02764,-5.71694 -24.25829,-23.70544 -18.22484,-39.83128 4.23363,-11.31538 15.24959,-19.21767 26.78983,-19.21767 8.35758,0 14.27769,2.288 20.40141,7.88474 7.02709,6.42237 9.77469,12.67742 9.81473,22.34373 0.0252,6.07442 -0.4323,8.25535 -2.70038,12.87403 -3.33109,6.78337 -10.73263,13.68326 -16.95093,15.80204 -5.51273,1.87838 -14.08712,1.9431 -19.12982,0.14441 z"
       id="path1256"
       transform="scale(0.26458333)" />
    <path
       style="opacity:1;fill:#008000;stroke-width:0.975112"
       d="m 390.53241,377.97328 c -9.53105,-2.5169 -18.54248,-10.99138 -21.42174,-20.14528 -6.26443,-19.91626 7.88462,-39.85928 28.24753,-39.81475 11.47606,0.0251 21.52969,6.56612 26.78293,17.42533 3.28822,6.79722 3.4075,18.48963 0.25442,24.93904 -5.24252,10.72326 -14.51633,17.33147 -25.27581,18.01072 -3.11409,0.1966 -6.97839,0.01 -8.58733,-0.41506 z"
       id="path1258"
       transform="scale(0.26458333)" />
    <path
       style="opacity:1;fill:#ffff00;stroke-width:0.975112"
       d="m 270.80571,750.25949 c -12.88217,-3.03339 -22.01506,-14.14231 -22.91558,-27.87366 -0.81447,-12.41939 5.53711,-23.53863 16.7479,-29.3193 7.31189,-3.77027 17.44557,-3.7486 25.18894,0.0539 6.176,3.03278 11.21164,8.28974 14.52735,15.16584 1.63793,3.39674 2.19716,6.36292 2.24919,11.92993 0.0618,6.61569 -0.29626,8.12603 -3.34363,14.10243 -4.08576,8.01283 -10.2093,13.13073 -18.49123,15.45453 -6.07265,1.70389 -8.44191,1.78642 -13.96294,0.48637 z"
       id="path1329"
       transform="scale(0.26458333)" />
    <path
       style="opacity:1;fill:#ffff00;stroke-width:0.975112"
       d="m 386.49837,376.04184 c -9.29277,-4.35913 -16.21711,-13.2976 -17.71719,-22.8707 -2.08219,-13.28796 4.06694,-25.57332 15.83868,-31.64415 3.9815,-2.05331 6.35338,-2.55782 12.25078,-2.60581 11.87654,-0.0966 20.71379,5.3273 26.55883,16.30073 3.16963,5.95064 3.16963,19.83561 0,25.78625 -5.64482,10.59753 -13.99934,16.01732 -25.54636,16.57255 -5.77403,0.27764 -8.21597,-0.0524 -11.38474,-1.53887 z"
       id="path1331"
       transform="scale(0.26458333)" />
    <path
       style="opacity:1;fill:#005500;stroke-width:0.975112;fill-opacity:1"
       d="m 267.49688,748.81144 c -10.27431,-3.79056 -17.85054,-14.51599 -18.62815,-26.3713 -0.65808,-10.033 1.52343,-15.91576 8.48287,-22.87519 6.81573,-6.81573 12.98325,-9.18146 22.04088,-8.4544 14.59408,1.17147 25.60897,12.65717 26.58626,27.72261 0.40621,6.26178 0.14628,7.65928 -2.46083,13.23054 -3.41037,7.2878 -8.73706,12.89134 -14.86901,15.64182 -5.71107,2.5617 -15.77928,3.08811 -21.15202,1.10592 z"
       id="path1333"
       transform="scale(0.26458333)" />
    <path
       style="opacity:1;fill:#ff0000;fill-opacity:1;stroke-width:0.975112"
       d="m 633.82289,688.00487 c -8.48831,-2.59138 -16.16801,-9.36302 -19.71665,-17.38532 -8.69857,-19.66455 5.72514,-42.28167 26.96444,-42.28167 20.61181,0 34.58454,19.97542 28.14304,40.23329 -2.37886,7.48131 -11.53804,16.63185 -18.80875,18.79102 -5.49073,1.63057 -12.46123,1.90073 -16.58208,0.64268 z"
       id="path1680"
       transform="scale(0.26458333)" />
    <path
       style="opacity:1;fill:#ff0000;fill-opacity:1;stroke-width:0.975112"
       d="m 635.28556,750.46949 c -8.93277,-2.32204 -16.90034,-8.8469 -21.016,-17.21059 -3.226,-6.55574 -3.36111,-18.26618 -0.28798,-24.95929 10.70117,-23.3065 42.02859,-24.08988 53.71919,-1.34331 7.42841,14.45355 0.96677,33.76306 -13.67898,40.87733 -5.47631,2.66016 -14.0193,3.86201 -18.73623,2.63586 z"
       id="path1682"
       transform="scale(0.26458333)" />
    <path
       style="opacity:1;fill:#ff0000;fill-opacity:1;stroke-width:0.975112"
       d="m 694.55876,749.96343 c -13.99706,-4.55896 -22.07701,-15.30174 -22.13597,-29.43108 -0.0927,-22.21403 22.89886,-37.10843 42.15472,-27.3087 10.17927,5.18045 15.99264,14.14997 16.59463,25.60404 0.49748,9.46558 -1.58252,15.44522 -7.70143,22.14027 -7.61791,8.33522 -19.54538,12.04625 -28.91195,8.99547 z"
       id="path1684"
       transform="scale(0.26458333)" />
    <path
       style="opacity:1;fill:#ff0000;fill-opacity:1;stroke-width:0.975112"
       d="m 694.27353,688.00564 c -22.40929,-6.8166 -29.44853,-34.76399 -12.86017,-51.05779 5.85142,-5.74751 12.21846,-8.57528 19.54203,-8.67912 12.07776,-0.17125 22.41713,6.28034 27.59069,17.21614 7.44486,15.73683 -0.27337,35.429 -16.22549,41.39745 -5.49073,2.05434 -13.37337,2.54499 -18.04706,1.12332 z"
       id="path1686"
       transform="scale(0.26458333)" />
    <path
       style="opacity:1;fill:#ff0000;fill-opacity:1;stroke-width:0.975112"
       d="m 695.74251,564.22618 c -9.23213,-2.40968 -15.96638,-7.89265 -20.16247,-16.41612 -4.535,-9.21189 -4.535,-17.68533 0,-26.89721 5.32611,-10.81888 14.33806,-16.59476 26.01314,-16.67219 9.11758,-0.0605 15.50056,2.78327 21.85618,9.73733 5.59341,6.12009 7.88474,12.04359 7.88474,20.38346 0,8.33988 -2.29133,14.26338 -7.88474,20.38346 -7.17364,7.8491 -18.76422,11.8154 -27.70685,9.48127 z"
       id="path1688"
       transform="scale(0.26458333)" />
    <path
       style="opacity:1;fill:#ff0000;fill-opacity:1;stroke-width:0.975112"
       d="m 634.92646,440.1234 c -13.92598,-2.52741 -23.43498,-13.54952 -24.27567,-28.13852 -0.5644,-9.79423 1.99946,-16.76387 8.59185,-23.35626 14.55159,-14.55159 38.34063,-10.25014 47.40838,8.57223 3.71732,7.71621 3.78902,17.8115 0.1812,25.51026 -5.9216,12.63617 -18.97382,19.7593 -31.90576,17.41229 z"
       id="path1690"
       transform="scale(0.26458333)" />
    <path
       style="opacity:1;fill:#ff0000;fill-opacity:1;stroke-width:0.975112"
       d="m 574.07059,440.21429 c -6.08523,-1.00875 -12.23619,-4.68942 -17.1325,-10.25193 -13.74238,-15.61217 -7.32487,-40.87694 12.24283,-48.19816 14.17645,-5.30409 29.50213,1.02079 36.39374,15.01962 5.4402,11.05063 3.82335,24.2004 -4.07953,33.17854 -4.67467,5.31071 -10.55351,8.93447 -15.94029,9.82572 -2.14525,0.35494 -4.55865,0.76979 -5.36312,0.92189 -0.80446,0.15211 -3.55898,-0.071 -6.12113,-0.49568 z"
       id="path1692"
       transform="scale(0.26458333)" />
    <path
       style="opacity:1;fill:#ff0000;fill-opacity:1;stroke-width:0.975112"
       d="m 513.80652,440.21456 c -19.18261,-3.08136 -30.65166,-25.46672 -22.05263,-43.04249 2.95626,-6.04238 8.09624,-11.21635 14.52915,-14.62522 6.1096,-3.23755 17.89298,-3.18677 24.583,0.10594 5.90575,2.9067 11.42723,8.4711 14.40543,14.51739 1.84933,3.75447 2.254,6.15162 2.254,13.35203 0,7.90523 -0.287,9.29416 -2.89248,13.99813 -6.38382,11.52547 -18.47052,17.67899 -30.82647,15.69422 z"
       id="path1694"
       transform="scale(0.26458333)" />
    <path
       style="opacity:1;fill:#ff0000;fill-opacity:1;stroke-width:0.975112"
       d=""
       id="path1696"
       transform="scale(0.26458333)" />
    <path
       style="opacity:1;fill:#ff0000;fill-opacity:1;stroke-width:0.975112"
       d="m 452.58606,440.17328 c -18.06536,-3.48671 -28.93574,-23.11707 -22.42996,-40.50533 7.37225,-19.70409 31.48502,-26.01921 46.79382,-12.25529 16.27211,14.63003 13.1789,40.1748 -6.00746,49.61166 -7.09144,3.48795 -12.12562,4.35154 -18.3564,3.14896 z"
       id="path1698"
       transform="scale(0.26458333)" />
    <path
       style="opacity:1;fill:#803300;fill-opacity:1;stroke-width:0.975112"
       d="m 449.52038,129.32365 c -7.61653,-2.49531 -14.21395,-8.2806 -18.27785,-16.02788 -2.28293,-4.3521 -2.65338,-6.21551 -2.65338,-13.346776 0,-7.066554 0.37832,-9.007217 2.56627,-13.164014 11.96365,-22.72929 42.35146,-22.623532 53.56073,0.186408 3.28399,6.682656 3.30014,19.241052 0.0333,25.884412 -2.85861,5.81316 -8.55383,11.72998 -13.97381,14.51753 -4.52473,2.32713 -16.6962,3.44394 -21.25524,1.95032 z"
       id="path1769"
       transform="scale(0.26458333)" />
    <path
       style="opacity:1;fill:#803300;fill-opacity:1;stroke-width:0.975112"
       d="m 387.80471,128.77104 c -20.03462,-7.14652 -26.70488,-31.996868 -13.05859,-48.650366 7.26407,-8.864846 20.67798,-12.656755 31.75646,-8.977074 6.71442,2.230172 14.76305,9.642809 17.75617,16.353104 3.20161,7.177689 3.20161,17.726896 0,24.904576 -2.87648,6.4488 -11.00298,14.06837 -17.28852,16.21006 -5.54718,1.89012 -14.11434,1.9615 -19.16552,0.1597 z"
       id="path1771"
       transform="scale(0.26458333)" />
    <path
       style="opacity:1;fill:#803300;fill-opacity:1;stroke-width:0.975112"
       d="m 323.9539,127.20647 c -22.23891,-11.11291 -22.86027,-42.185473 -1.08064,-54.039435 7.70706,-4.194707 17.0897,-4.588687 24.97758,-1.048817 20.50983,9.204265 24.67547,35.626572 7.98287,50.634652 -9.01091,8.10159 -21.17805,9.80133 -31.87981,4.4536 z"
       id="path1773"
       transform="scale(0.26458333)" />
    <path
       style="opacity:1;fill:#803300;fill-opacity:1;stroke-width:0.975112"
       d="m 265.49825,128.56455 c -5.87582,-2.08059 -13.32612,-9.16914 -16.53894,-15.7359 -3.87039,-7.91081 -3.87039,-17.848503 0,-25.759307 3.4289,-7.008415 10.77708,-13.737427 17.40576,-15.93912 10.51883,-3.493793 24.02825,0.01219 31.10528,8.072486 5.86711,6.682259 7.2468,10.632091 7.2468,20.746285 0,7.742636 -0.36076,9.939526 -2.19729,13.380676 -3.48449,6.52896 -7.70053,10.67728 -14.10333,13.8768 -4.90932,2.45322 -7.06547,2.95758 -12.37176,2.89402 -3.53445,-0.0423 -8.28038,-0.73351 -10.54652,-1.53594 z"
       id="path1775"
       transform="scale(0.26458333)" />
    <path
       style="opacity:1;fill:#803300;fill-opacity:1;stroke-width:0.975112"
       d="m 266.40547,190.79733 c -6.7855,-2.42229 -11.67698,-6.4594 -15.51576,-12.80569 -9.74141,-16.10456 -3.71322,-35.93518 13.30076,-43.75476 14.58214,-6.70191 31.65477,0.18212 38.54858,15.54358 2.32071,5.17123 2.62197,6.91892 2.3108,13.40533 -0.41753,8.7036 -2.87416,14.59006 -8.51449,20.40203 -7.72873,7.96393 -19.87501,10.8703 -30.12989,7.20951 z"
       id="path1777"
       transform="scale(0.26458333)" />
    <path
       style="opacity:1;fill:#803300;fill-opacity:1;stroke-width:0.975112"
       d="m 269.84714,253.95924 c -18.55256,-4.51438 -28.84849,-25.01408 -21.05265,-41.91685 3.42677,-7.42984 7.76521,-12.06109 14.3087,-15.27443 7.58516,-3.72487 17.85171,-3.85988 25.02702,-0.32911 10.81122,5.31988 17.08059,15.64113 17.07912,28.1173 -0.002,18.48833 -18.16244,33.5883 -35.36219,29.40309 z"
       id="path1779"
       transform="scale(0.26458333)" />
    <path
       style="opacity:1;fill:#803300;fill-opacity:1;stroke-width:0.975112"
       d="m 263.76783,313.71114 c -11.26231,-5.45413 -17.43147,-15.16101 -17.49106,-27.52135 -0.0293,-6.07398 0.42702,-8.2639 2.68254,-12.87403 11.21191,-22.91631 41.44662,-23.19914 53.56055,-0.50103 1.83653,3.44116 2.19729,5.63804 2.19729,13.38068 0,7.74264 -0.36076,9.93953 -2.19729,13.38068 -5.65031,10.5871 -13.99207,16.00462 -25.55065,16.59377 -6.55012,0.33386 -7.98792,0.0661 -13.20138,-2.45872 z"
       id="path1781"
       transform="scale(0.26458333)" />
    <path
       style="opacity:1;fill:#803300;fill-opacity:1;stroke-width:0.975112"
       d="m 205.00107,314.79756 c -5.91946,-2.09485 -14.11625,-9.93273 -16.8894,-16.14986 -5.0034,-11.21714 -2.27346,-25.52626 6.5332,-34.24408 6.4964,-6.43086 10.35154,-7.93415 20.36736,-7.94213 7.93302,-0.006 9.2839,0.274 14.06351,2.91834 10.43814,5.77495 16.31273,16.72296 15.44923,28.7915 -0.57883,8.08999 -3.34813,14.12289 -9.14282,19.91757 -7.57703,7.57703 -20.10825,10.34414 -30.38108,6.70866 z"
       id="path1783"
       transform="scale(0.26458333)" />
    <path
       style="opacity:1;fill:#803300;fill-opacity:1;stroke-width:0.975112"
       d="m 143.6167,314.36644 c -10.40498,-3.99977 -17.72471,-14.32276 -18.57417,-26.19511 -0.8635,-12.06854 5.01109,-23.01655 15.44923,-28.7915 4.77961,-2.64434 6.13049,-2.92467 14.06351,-2.91834 9.97916,0.008 13.80907,1.48832 20.36941,7.87335 8.7585,8.52445 11.53277,23.09972 6.53115,34.31286 -2.87648,6.4488 -11.00299,14.06837 -17.28852,16.21006 -6.14471,2.09372 -14.33531,1.89789 -20.55061,-0.49132 z"
       id="path1785"
       transform="scale(0.26458333)" />
    <path
       style="opacity:1;fill:#803300;fill-opacity:1;stroke-width:0.975112"
       d="m 87.272536,377.91611 c -8.137295,-1.98981 -16.396432,-8.75356 -20.19642,-16.53969 -2.942898,-6.02996 -3.522826,-16.67543 -1.276799,-23.43759 2.226569,-6.70356 9.661674,-14.73778 16.33427,-17.65046 8.025471,-3.50322 16.159532,-3.23566 24.361573,0.80134 10.80127,5.31633 16.72258,14.88332 16.77356,27.10085 0.0804,19.26382 -17.93609,34.14177 -35.996184,29.72555 z"
       id="path1787"
       transform="scale(0.26458333)" />
    <path
       style="opacity:1;fill:#803300;fill-opacity:1;stroke-width:0.975112"
       d="m 89.131794,440.18132 c -9.989439,-1.85059 -17.622167,-7.74244 -22.000563,-16.98265 -9.756356,-20.58992 6.122843,-44.68971 28.429759,-43.14773 13.17378,0.91065 22.92634,9.14752 26.86259,22.68777 5.84461,20.10472 -12.92586,41.21549 -33.291786,37.44261 z"
       id="path1789"
       transform="scale(0.26458333)" />
    <path
       style="opacity:1;fill:#803300;fill-opacity:1;stroke-width:0.975112"
       d="m 85.062275,501.09343 c -5.956466,-2.17875 -14.130147,-10.01588 -16.894964,-16.19931 -3.436516,-7.68567 -3.283481,-18.88009 0.353079,-25.82749 8.087012,-15.44967 24.739735,-21.25826 39.62327,-13.82087 22.33632,11.16159 21.92576,43.62463 -0.6913,54.66098 -5.80035,2.83037 -16.365552,3.39034 -22.390085,1.18669 z"
       id="path1791"
       transform="scale(0.26458333)" />
    <path
       style="opacity:1;fill:#803300;fill-opacity:1;stroke-width:0.975112"
       d="m 148.2126,563.81723 c -9.98019,-2.82211 -17.92797,-11.12568 -21.11623,-22.06152 -2.01609,-6.91529 -1.20769,-13.47222 2.61947,-21.24628 5.11689,-10.39388 14.31791,-16.19252 25.81455,-16.26877 9.11757,-0.0605 15.50055,2.78327 21.85617,9.73733 5.59341,6.12009 7.88475,12.04359 7.88475,20.38346 0,8.33988 -2.29134,14.26338 -7.88475,20.38346 -7.66705,8.38898 -19.06063,11.93207 -29.17396,9.07232 z"
       id="path1793"
       transform="scale(0.26458333)" />
    <path
       style="opacity:1;fill:#803300;fill-opacity:1;stroke-width:0.975112"
       d="m 87.440575,563.73723 c -13.613343,-3.82317 -23.12836,-17.69799 -21.844733,-31.85405 1.908525,-21.04756 23.584984,-33.99574 41.875598,-25.01389 14.1129,6.93032 20.80641,23.5251 15.36017,38.08147 -5.38589,14.3951 -21.17812,22.77801 -35.391035,18.78647 z"
       id="path1795"
       transform="scale(0.26458333)" />
    <path
       style="opacity:1;fill:#803300;fill-opacity:1;stroke-width:0.975112"
       d="m 210.13667,564.21954 c -7.82304,-2.06544 -16.47716,-8.88634 -20.00577,-15.76791 -4.15659,-8.10626 -4.15268,-20.08201 0.009,-28.19837 2.48867,-4.85332 8.42777,-10.51398 14.1459,-13.48271 3.96275,-2.05737 6.24478,-2.53523 12.1889,-2.5524 6.47017,-0.0187 8.02111,0.35894 13.45221,3.27549 17.36088,9.32294 21.54735,30.98419 9.04032,46.77561 -5.88573,7.43134 -19.96589,12.29079 -28.83075,9.95029 z"
       id="path1797"
       transform="scale(0.26458333)" />
    <path
       style="opacity:1;fill:#803300;fill-opacity:1;stroke-width:0.975112"
       d="m 269.61851,563.77188 c -9.29833,-3.07991 -15.37791,-8.46699 -19.43535,-17.22153 -6.83581,-14.7493 0.30951,-33.21833 15.5349,-40.15416 6.51761,-2.96905 16.59639,-3.00643 23.1066,-0.0857 5.84447,2.62206 12.35974,9.13598 15.37767,15.37448 3.3552,6.93568 3.3552,18.41724 0,25.35292 -2.96676,6.13273 -9.52217,12.75551 -15.04308,15.19767 -5.59538,2.4751 -14.57509,3.18109 -19.54074,1.5363 z"
       id="path1799"
       transform="scale(0.26458333)" />
    <path
       style="opacity:1;fill:#803300;fill-opacity:1;stroke-width:0.975112"
       d="m 264.56009,623.61888 c -10.60488,-5.3632 -15.96835,-13.5408 -16.65102,-25.38758 -0.56439,-9.79423 1.99946,-16.76387 8.59186,-23.35626 14.84825,-14.84825 39.22044,-9.98464 48.03336,9.58533 1.45646,3.2342 2.04112,6.57311 2.0699,11.8207 0.0486,8.86846 -2.39687,14.98607 -8.51031,21.28916 -6.07544,6.26392 -10.52876,8.23078 -19.69936,8.70045 -7.21185,0.36936 -8.2565,0.16912 -13.83443,-2.6518 z"
       id="path1801"
       transform="scale(0.26458333)" />
    <path
       style="opacity:1;fill:#803300;fill-opacity:1;stroke-width:0.975112"
       d="m 267.82647,687.46598 c -8.71478,-3.33421 -16.78432,-11.9582 -19.17325,-20.49061 -1.9193,-6.85506 -0.83693,-16.72348 2.50838,-22.86991 11.94923,-21.95467 42.29736,-20.91052 52.95613,1.822 3.32578,7.09309 3.50589,17.72133 0.41656,24.58149 -2.78844,6.19202 -8.48283,12.22163 -14.37655,15.2229 -6.09811,3.10534 -16.61305,3.92187 -22.33127,1.73413 z"
       id="path1803"
       transform="scale(0.26458333)" />
    <path
       style="opacity:1;fill:#803300;fill-opacity:1;stroke-width:0.975112"
       d="m 392.48264,750.46949 c -8.92094,-2.31897 -15.5657,-7.59033 -20.03394,-15.89315 -2.97504,-5.52817 -3.32152,-6.9763 -3.3421,-13.96847 -0.0198,-6.72548 0.37238,-8.58162 2.84471,-13.46413 3.31191,-6.54056 8.62015,-11.71375 15.04885,-14.66597 6.42639,-2.95117 17.47381,-2.83065 23.52205,0.2566 10.22112,5.21724 16.53939,14.57438 17.33971,25.6795 0.2609,3.6201 0.7445,6.57845 1.07467,6.5741 0.33017,-0.004 0.6643,-2.69738 0.74251,-5.98452 0.39395,-16.55736 16.13122,-30.61914 32.15923,-28.73537 15.95245,1.8749 26.83216,14.23578 26.83216,30.48512 0,7.84235 -2.52557,14.22191 -8.0027,20.21476 -11.67672,12.7762 -30.03502,13.20316 -42.23999,0.98238 -3.54896,-3.55355 -8.37253,-12.03576 -8.39382,-14.76046 -0.0143,-1.83308 -1.9441,-1.46475 -2.55441,0.48755 -2.99236,9.57218 -9.42212,17.27273 -17.35069,20.77992 -4.80876,2.12714 -13.42451,3.10957 -17.64624,2.01214 z"
       id="path1809"
       transform="scale(0.26458333)" />
    <path
       style="opacity:1;fill:#803300;fill-opacity:1;stroke-width:0.975112"
       d="m 330.51481,750.04944 c -17.11828,-4.82375 -26.60391,-23.44045 -20.39663,-40.03088 1.09051,-2.91464 3.73891,-7.29447 5.88535,-9.73295 14.25516,-16.19472 39.82423,-12.04036 49.0045,7.96206 2.92282,6.36838 2.93396,18.32852 0.023,24.66846 -6.11262,13.31293 -21.30743,20.85541 -34.51619,17.13331 z"
       id="path1811"
       transform="scale(0.26458333)" />
    <path
       style="opacity:1;fill:#803300;fill-opacity:1;stroke-width:0.975112"
       d="m 513.62517,750.31647 c -6.18164,-1.54651 -10.96915,-4.51786 -15.62768,-9.69927 -5.77102,-6.41877 -7.8398,-12.54835 -7.35412,-21.78951 1.63022,-31.01821 41.87733,-39.52709 55.55437,-11.74508 5.58259,11.33985 4.14605,23.18516 -4.06983,33.55855 -5.76981,7.28497 -19.46926,11.93528 -28.50274,9.67531 z"
       id="path1813"
       transform="scale(0.26458333)" />
    <path
       style="opacity:1;fill:#803300;fill-opacity:1;stroke-width:0.975112"
       d="m 512.42143,563.77188 c -6.61756,-2.19195 -9.81434,-4.27411 -14.41014,-9.38575 -5.26667,-5.85781 -7.52988,-11.8765 -7.52988,-20.02468 0,-8.33987 2.29133,-14.26337 7.88474,-20.38346 6.35562,-6.95406 12.7386,-9.79779 21.85618,-9.73733 11.67508,0.0774 20.68703,5.85331 26.01315,16.67219 2.6981,5.48062 3.18604,7.54026 3.18604,13.4486 0,15.99904 -11.77057,28.93275 -27.51998,30.23945 -3.29135,0.27308 -7.1793,-0.0669 -9.48011,-0.82902 z"
       id="path1815"
       transform="scale(0.26458333)" />
    <path
       style="opacity:1;fill:#803300;fill-opacity:1;stroke-width:0.975112"
       d="m 510.47121,625.27171 c -8.86413,-3.64968 -13.84536,-8.43135 -17.81426,-17.10056 -2.09789,-4.58239 -2.35562,-6.2929 -1.99201,-13.22059 0.33827,-6.44479 0.95696,-8.94811 3.25511,-13.17056 11.9084,-21.87965 43.05401,-20.34157 53.34326,2.63428 2.84168,6.34546 2.87938,17.49046 0.0801,23.6875 -2.60759,5.77271 -8.21263,11.96567 -13.78572,15.23172 -3.57218,2.09344 -5.83471,2.61981 -12.27046,2.85469 -4.70426,0.17169 -9.07204,-0.19841 -10.81605,-0.91648 z"
       id="path1817"
       transform="scale(0.26458333)" />
    <path
       style="opacity:1;fill:#803300;fill-opacity:1;stroke-width:0.975112"
       d="m 509.21768,686.83463 c -6.97378,-2.67977 -14.05577,-9.85909 -16.70186,-16.93142 -7.74383,-20.69722 6.71878,-41.94111 28.3443,-41.63448 18.55975,0.26315 32.76975,19.66471 27.68145,37.79473 -4.97843,17.73854 -22.76566,27.13389 -39.32389,20.77117 z"
       id="path1819"
       transform="scale(0.26458333)" />
    <path
       style="opacity:1;fill:#803300;fill-opacity:1;stroke-width:0.975112"
       d="m 571.61557,563.2897 c -6.45178,-2.30258 -11.47163,-6.26436 -15.54462,-12.26816 -4.11026,-6.05874 -5.45394,-11.29809 -4.89783,-19.09787 1.28152,-17.97421 17.94626,-30.91756 35.19611,-27.3365 10.53496,2.18705 19.64207,10.72682 22.72236,21.30683 1.74589,5.99669 1.49322,6.15325 4.69566,-2.90946 2.22155,-6.28688 8.30489,-12.85354 14.89388,-16.07724 14.46809,-7.07858 31.26809,-0.91032 39.46524,14.48998 3.22604,6.06089 3.22604,19.86746 0,25.92835 -8.18306,15.37382 -24.9996,21.56735 -39.41268,14.51569 -9.66997,-4.73108 -15.9074,-13.7877 -17.12936,-24.87151 l -0.61008,-5.53369 -0.74367,5.64017 c -0.40902,3.10209 -1.58574,7.5438 -2.61494,9.87048 -6.04786,13.67218 -22.53862,21.15433 -36.02007,16.34293 z"
       id="path1821"
       transform="scale(0.26458333)" />
    <path
       style="opacity:1;fill:#803300;fill-opacity:1;stroke-width:0.975112"
       d="m 568.66506,561.11039 c -10.69929,-5.34649 -16.75159,-14.76806 -16.75159,-26.07705 0,-9.6725 2.23122,-15.23543 8.71338,-21.72444 6.79831,-6.80549 12.96976,-9.17168 22.02551,-8.44477 12.99185,1.04286 21.76117,8.97152 27.23234,24.62176 0.54742,1.5659 1.42981,0.39023 4.47755,-5.96574 3.99037,-8.32182 7.76228,-12.43375 14.85597,-16.19519 5.87057,-3.11289 17.96546,-3.11289 23.83603,0 5.85218,3.10313 10.65533,7.5811 13.71594,12.78733 2.39949,4.08162 2.64429,5.40077 2.64429,14.24916 0,8.84839 -0.2448,10.16754 -2.64429,14.24917 -6.81495,11.59252 -20.72992,17.82691 -32.61316,14.61182 -11.9234,-3.22595 -19.89385,-13.16551 -22.36145,-27.88588 -0.64483,-3.84668 -0.68282,-3.78349 -2.75579,4.58419 -2.38647,9.63311 -5.33631,14.06997 -12.65605,19.03602 -9.04916,6.13936 -18.3036,6.85839 -27.71868,2.15362 z"
       id="path1823"
       transform="scale(0.26458333)" />
    <path
       style="opacity:1;fill:#803300;fill-opacity:1;stroke-width:0.975112"
       d="m 693.18994,501.32409 c -13.10152,-4.68183 -20.64338,-15.19701 -20.7154,-28.88226 -0.0457,-8.68867 2.37736,-15.02224 7.95808,-20.8012 6.02697,-6.24107 11.14091,-8.69654 19.18759,-9.21294 13.24412,-0.84996 22.93707,4.81628 28.87612,16.8802 2.87618,5.84236 3.05592,6.81137 2.66058,14.34365 -0.34514,6.5758 -0.95219,9.04849 -3.26433,13.29665 -6.67494,12.26408 -22.39212,18.77507 -34.70264,14.3759 z"
       id="path1825"
       transform="scale(0.26458333)" />
    <path
       style="opacity:1;fill:#803300;fill-opacity:1;stroke-width:0.975112"
       d="m 695.47193,440.18744 c -14.97856,-2.89758 -25.32221,-16.3244 -24.35565,-31.61545 1.67866,-26.55672 33.35682,-38.36455 50.88222,-18.96602 13.73185,15.19951 9.65745,38.609 -8.25312,47.41835 -7.0669,3.47588 -12.12801,4.35195 -18.27345,3.16312 z"
       id="path1827"
       transform="scale(0.26458333)" />
    <path
       style="opacity:1;fill:#803300;fill-opacity:1;stroke-width:0.975112"
       d="m 692.81718,377.52558 c -6.08245,-2.01489 -9.45637,-4.07445 -13.30441,-8.12149 -11.14693,-11.72339 -11.47387,-29.44827 -0.76753,-41.61131 14.18445,-16.11438 39.87726,-11.91465 49.02748,8.01399 2.8994,6.31473 2.8994,18.3018 0,24.61652 -6.16689,13.43113 -22.26368,21.30661 -34.95554,17.10229 z"
       id="path1829"
       transform="scale(0.26458333)" />
    <path
       style="opacity:1;fill:#803300;fill-opacity:1;stroke-width:0.975112"
       d="m 689.79531,314.40964 c -5.96345,-2.29399 -13.06041,-8.99267 -16.03301,-15.13324 -6.74769,-13.93886 -0.94379,-32.10375 12.71665,-39.80025 4.89874,-2.76002 6.123,-3.02105 14.13912,-3.01466 7.22128,0.006 9.5056,0.3956 12.89434,2.2006 5.56399,2.96365 10.45022,8.02854 13.65871,14.15812 2.25665,4.31118 2.66172,6.27614 2.65674,12.88765 -0.008,10.18078 -2.62138,16.26911 -9.80144,22.83129 -8.54449,7.80917 -19.60689,9.95735 -30.23111,5.87049 z"
       id="path1831"
       transform="scale(0.26458333)" />
    <path
       style="opacity:1;fill:#803300;fill-opacity:1;stroke-width:0.975112"
       d="m 631.25319,315.36194 c -5.17102,-1.49868 -12.3864,-6.98988 -15.7004,-11.94865 -4.16123,-6.22647 -5.44359,-11.36291 -4.90725,-19.65566 0.73453,-11.357 6.29435,-19.68577 16.56823,-24.81969 10.71462,-5.35416 22.86853,-3.64832 31.90727,4.47828 7.04607,6.33502 10.26778,13.48244 10.26778,22.77919 0,6.03539 -0.47836,8.30234 -2.71784,12.87965 -3.31557,6.7768 -10.7125,13.67515 -16.9381,15.79642 -4.92941,1.67962 -13.58408,1.90932 -18.47969,0.49046 z"
       id="path1833"
       transform="scale(0.26458333)" />
    <path
       style="opacity:1;fill:#803300;fill-opacity:1;stroke-width:0.975112"
       d="m 509.20839,190.79733 c -25.39332,-9.06492 -27.53392,-44.0407 -3.42188,-55.91102 15.04649,-7.40736 31.16396,-1.68541 39.48598,14.01813 3.20358,6.0451 3.226,19.76545 0.0429,26.22556 -6.68391,13.56484 -22.62274,20.48093 -36.10696,15.66733 z"
       id="path1841"
       transform="scale(0.26458333)" />
    <path
       style="opacity:1;fill:#803300;fill-opacity:1;stroke-width:0.975112"
       d="m 512.65006,253.95924 c -5.49967,-1.33823 -10.96725,-4.40792 -14.95636,-8.39704 -12.16681,-12.16681 -11.58983,-32.84878 1.23126,-44.13435 12.1053,-10.65551 28.71498,-10.23191 40.08161,1.02221 6.58299,6.51783 8.52186,11.49508 8.50216,21.82573 -0.0188,9.84542 -1.5702,13.9584 -7.91362,20.97981 -6.30212,6.97569 -18.22241,10.82612 -26.94505,8.70364 z"
       id="path1843"
       transform="scale(0.26458333)" />
    <path
       style="opacity:1;fill:#803300;fill-opacity:1;stroke-width:0.975112"
       d="m 508.30117,314.86925 c -5.92529,-2.18192 -13.34638,-9.26884 -16.53893,-15.79419 -2.26018,-4.61963 -2.71021,-6.78751 -2.67255,-12.87402 0.0602,-9.72152 2.79201,-15.96815 9.77407,-22.34936 9.37514,-8.56835 21.40613,-10.3853 32.39767,-4.89276 22.26731,11.1271 22.29153,43.18303 0.0413,54.62506 -5.51739,2.83728 -17.03859,3.48106 -23.00152,1.28527 z"
       id="path1845"
       transform="scale(0.26458333)" />
    <path
       style="opacity:1;fill:#803300;fill-opacity:1;stroke-width:0.975112"
       d="m 570.32581,315.1369 c -8.85412,-3.31268 -14.15367,-8.22783 -18.04536,-16.73645 -5.3644,-11.7285 -2.97287,-24.38595 6.37117,-33.72013 11.35734,-11.34536 28.21832,-11.85258 40.07288,-1.20549 15.60031,14.01132 12.53592,39.43174 -5.96746,49.50254 -6.09824,3.31908 -16.6236,4.33239 -22.43123,2.15953 z"
       id="path1847"
       transform="scale(0.26458333)" />
  </g>
</svg>
